<svg xmlns="http://www.w3.org/2000/svg" version="1.1" xmlns:xlink="http://www.w3.org/1999/xlink" width="1000" height="1000"><g clip-path="url(#SvgjsClipPath1001)"><rect width="1000" height="1000" fill="#ffffff"></rect><g transform="matrix(3.5,0,0,3.5,150,150)"><svg xmlns="http://www.w3.org/2000/svg" version="1.1" xmlns:xlink="http://www.w3.org/1999/xlink" width="200" height="200"><svg xmlns="http://www.w3.org/2000/svg" version="1.1" xmlns:xlink="http://www.w3.org/1999/xlink" viewBox="0 0 200 200"><rect width="200" height="200" fill="url('#gradient')"></rect><defs><linearGradient id="gradient" gradientTransform="rotate(27 0.5 0.5)"><stop offset="0%" stop-color="#ffffff"></stop><stop offset="100%" stop-color="#f9f9f9"></stop></linearGradient><clipPath id="SvgjsClipPath1001"><rect width="1000" height="1000" x="0" y="0" rx="350" ry="350"></rect></clipPath></defs><g><g fill="#1b7ee1" transform="matrix(4.181752390798656,0,0,4.181752390798656,20.921931414980833,122.08285489879735)" stroke="#0e5278" stroke-width="0.45"><path d="M3.50-10.57L5.14-3.92L6.81-10.57L10.27-10.57L6.83 0L3.47 0L0.02-10.57L3.50-10.57ZM17.71-10.64L17.65-7.59L16.56-7.67Q15.01-7.67 14.57-6.69L14.57-6.69L14.57 0L11.28 0L11.28-10.57L14.37-10.57L14.47-9.21Q15.30-10.76 16.79-10.76L16.79-10.76Q17.31-10.76 17.71-10.64L17.71-10.64ZM24.37-2.97L24.37-2.97Q24.37-3.39 23.93-3.64Q23.49-3.90 22.26-4.17Q21.03-4.44 20.22-4.89Q19.42-5.33 19.00-5.97Q18.58-6.60 18.58-7.42L18.58-7.42Q18.58-8.88 19.79-9.82Q20.99-10.76 22.93-10.76L22.93-10.76Q25.02-10.76 26.29-9.81Q27.56-8.87 27.56-7.32L27.56-7.32L24.26-7.32Q24.26-8.59 22.92-8.59L22.92-8.59Q22.40-8.59 22.05-8.31Q21.70-8.02 21.70-7.59L21.70-7.59Q21.70-7.15 22.13-6.88Q22.56-6.60 23.50-6.43Q24.44-6.25 25.16-6.01L25.16-6.01Q27.54-5.19 27.54-3.07L27.54-3.07Q27.54-1.62 26.25-0.71Q24.97 0.20 22.93 0.20L22.93 0.20Q21.57 0.20 20.51-0.29Q19.44-0.78 18.85-1.62Q18.25-2.46 18.25-3.39L18.25-3.39L21.33-3.39Q21.35-2.66 21.82-2.32Q22.29-1.98 23.02-1.98L23.02-1.98Q23.69-1.98 24.03-2.26Q24.37-2.53 24.37-2.97ZM34.61-2.97L34.61-2.97Q34.61-3.39 34.17-3.64Q33.73-3.90 32.50-4.17Q31.27-4.44 30.47-4.89Q29.67-5.33 29.25-5.97Q28.83-6.60 28.83-7.42L28.83-7.42Q28.83-8.88 30.03-9.82Q31.23-10.76 33.17-10.76L33.17-10.76Q35.26-10.76 36.53-9.81Q37.80-8.87 37.80-7.32L37.80-7.32L34.50-7.32Q34.50-8.59 33.16-8.59L33.16-8.59Q32.65-8.59 32.29-8.31Q31.94-8.02 31.94-7.59L31.94-7.59Q31.94-7.15 32.37-6.88Q32.80-6.60 33.75-6.43Q34.69-6.25 35.40-6.01L35.40-6.01Q37.78-5.19 37.78-3.07L37.78-3.07Q37.78-1.62 36.50-0.71Q35.21 0.20 33.17 0.20L33.17 0.20Q31.82 0.20 30.75-0.29Q29.69-0.78 29.09-1.62Q28.50-2.46 28.50-3.39L28.50-3.39L31.57-3.39Q31.59-2.66 32.06-2.32Q32.53-1.98 33.26-1.98L33.26-1.98Q33.94-1.98 34.27-2.26Q34.61-2.53 34.61-2.97Z"></path></g></g></svg></svg></g></g></svg>