<svg xmlns="http://www.w3.org/2000/svg" version="1.1" xmlns:xlink="http://www.w3.org/1999/xlink" viewBox="0 0 200 200"><rect width="200" height="200" fill="url('#gradient')"></rect><defs><linearGradient id="gradient" gradientTransform="rotate(0 0.5 0.5)"><stop offset="0%" stop-color="#0019f9"></stop><stop offset="100%" stop-color="#034c81"></stop></linearGradient></defs><g><g fill="#ffffff" transform="matrix(3.949093713844967,0,0,3.949093713844967,0.10970913677707017,128.06268448688053)" stroke="#ffffff" stroke-width="0"><path d="M3.77-14.22L6.59-3.87L9.42-14.22L13.25-14.22L8.47 0L4.72 0L-0.03-14.22L3.77-14.22ZM22.08 0L19.57-5.02L17.71-5.02L17.71 0L14.29 0L14.29-14.22L19.88-14.22Q22.41-14.22 23.84-13.10Q25.26-11.97 25.26-9.92L25.26-9.92Q25.26-8.44 24.66-7.46Q24.06-6.48 22.78-5.88L22.78-5.88L25.75-0.15L25.75 0L22.08 0ZM17.71-11.57L17.71-7.67L19.88-7.67Q20.86-7.67 21.35-8.18Q21.85-8.69 21.85-9.61Q21.85-10.53 21.35-11.05Q20.85-11.57 19.88-11.57L19.88-11.57L17.71-11.57ZM34.67-3.78L34.67-3.78Q34.67-4.53 34.14-4.95Q33.60-5.37 32.27-5.82Q30.93-6.27 30.08-6.69L30.08-6.69Q27.31-8.05 27.31-10.42L27.31-10.42Q27.31-11.60 28.00-12.50Q28.69-13.41 29.95-13.91Q31.21-14.41 32.78-14.41L32.78-14.41Q34.32-14.41 35.53-13.87Q36.75-13.32 37.42-12.31Q38.10-11.30 38.10-10L38.10-10L34.68-10Q34.68-10.87 34.15-11.35Q33.61-11.83 32.71-11.83L32.71-11.83Q31.79-11.83 31.25-11.42Q30.72-11.02 30.72-10.39L30.72-10.39Q30.72-9.84 31.31-9.40Q31.89-8.96 33.37-8.48Q34.84-8.01 35.79-7.46L35.79-7.46Q38.10-6.13 38.10-3.80L38.10-3.80Q38.10-1.93 36.69-0.87Q35.28 0.20 32.83 0.20L32.83 0.20Q31.10 0.20 29.70-0.42Q28.30-1.04 27.59-2.12Q26.88-3.20 26.88-4.61L26.88-4.61L30.32-4.61Q30.32-3.47 30.91-2.92Q31.50-2.38 32.83-2.38L32.83-2.38Q33.68-2.38 34.17-2.75Q34.67-3.12 34.67-3.78ZM47.19-3.78L47.19-3.78Q47.19-4.53 46.66-4.95Q46.12-5.37 44.79-5.82Q43.45-6.27 42.60-6.69L42.60-6.69Q39.83-8.05 39.83-10.42L39.83-10.42Q39.83-11.60 40.52-12.50Q41.21-13.41 42.47-13.91Q43.73-14.41 45.30-14.41L45.30-14.41Q46.84-14.41 48.05-13.87Q49.27-13.32 49.94-12.31Q50.62-11.30 50.62-10L50.62-10L47.20-10Q47.20-10.87 46.67-11.35Q46.13-11.83 45.22-11.83L45.22-11.83Q44.31-11.83 43.77-11.42Q43.24-11.02 43.24-10.39L43.24-10.39Q43.24-9.84 43.83-9.40Q44.41-8.96 45.89-8.48Q47.36-8.01 48.31-7.46L48.31-7.46Q50.62-6.13 50.62-3.80L50.62-3.80Q50.62-1.93 49.21-0.87Q47.80 0.20 45.35 0.20L45.35 0.20Q43.62 0.20 42.22-0.42Q40.82-1.04 40.11-2.12Q39.40-3.20 39.40-4.61L39.40-4.61L42.84-4.61Q42.84-3.47 43.43-2.92Q44.02-2.38 45.35-2.38L45.35-2.38Q46.20-2.38 46.69-2.75Q47.19-3.12 47.19-3.78Z"></path></g></g></svg>